<?xml version="1.0" encoding="utf-8"?>
<!-- Generator: Adobe Illustrator 22.0.1, SVG Export Plug-In . SVG Version: 6.00 Build 0)  -->
<svg version="1.2" baseProfile="tiny" id="Слой_1"
	 xmlns="http://www.w3.org/2000/svg" xmlns:xlink="http://www.w3.org/1999/xlink" x="0px" y="0px" viewBox="0 0 40 40"
	 xml:space="preserve">
<path fill="#FFFFFF" d="M16.68,16.29c0.1,0,2.51,1.3,4.62,1.79h-0.1c-0.5,0.3-2.21,1-3.42,0.8c-0.6-0.4-1.11-0.9-2.01-0.9
	c0-0.1,0-0.3-0.1-0.4c-0.2-0.4-0.6-0.8-1.31-1c0-0.1,0-0.3,0-0.4c-0.1-0.4-0.5-0.7-1.01-1c0,0,0,0,0-0.1c0-0.4-0.4-0.7-0.7-1.1
	c-0.1-0.1-0.3-0.3-0.4-0.4c0-0.1-0.1-0.3-0.1-0.5c0.5-0.1,1.31-0.2,1.51-0.1h0.1c0.5,0.1,1.11,0.3,1.51,0c0.1,0,0.1-0.1,0.2-0.2
	c0.7,0.3,1.31,0.5,1.81,0.3c0.1,0,0.1-0.1,0.3-0.1c0.4,0.3,1.11,0.8,1.71,0.7c0.1,0,0.3,0,0.4-0.1c1.01,0.7,2.01,2.29,2.01,3.49
	c-2.01-0.4-4.52-1.69-4.62-1.69c-0.3-0.1-0.5,0-0.7,0.2C16.38,15.89,16.48,16.19,16.68,16.29z M20.1,12.7c0.5,0.3,1.01,0.7,1.41,1.2
	c-0.3-3.89,1.11-6.88,1.21-6.97c0.1-0.2,0.4-0.3,0.6-0.2c0.2,0.1,0.4,0.4,0.3,0.6c0,0-1.61,3.49-1.01,7.67c0.3-0.3,0.6-0.6,1.31-0.8
	c0.1,0,0.4,0,0.5,0c0.1,0.1,0.3,0.2,0.3,0.4c0,0.2,0.3,0.1,0.4,0.1c0.2,0,0.4,0,0.5,0.2c0.1,0.1,0.1,0.3,0.1,0.5
	c0.5-0.4,1.01-0.7,1.31-1c0.8-0.7,1.41-1.99,1.81-2.89c0-0.1,0-0.2-0.1-0.3c-0.2-0.1-0.3-0.2-0.3-0.3c-0.3-0.4-0.3-0.9,0-1.49
	c0-0.1,0-0.2,0-0.3c0-0.1-0.2-0.2-0.3-0.4c-0.2-0.4-0.3-0.9,0-1.39c0-0.1,0-0.3-0.1-0.4c-0.2-0.1-0.3-0.3-0.3-0.4
	c-0.2-0.3-0.2-0.7,0-1.2c0-0.1,0-0.2-0.1-0.3c-0.6-0.3-0.9-0.8-1.01-1.39c0-0.1-0.1-0.2-0.2-0.3c-0.5-0.3-0.8-0.9-0.9-1.3
	c0-0.2-0.1-0.4-0.1-0.5c-0.4-0.2-0.6-0.4-0.7-0.6h-0.1c-0.5,0.3-1,0.7-1.11,1c-0.4,0.6-0.5,0.9-0.8,0.8c0,0-0.5-0.1-0.5,0
	c-0.1,0.5-0.1,1-0.8,1c-0.1,0-0.5-0.1-0.5,0.1c0,0.6-0.1,1.3-0.7,1.3c-0.1,0-0.5,0-0.5,0.3c0,0.9-0.2,1.2-0.7,1.49
	c-0.1,0-0.3,0-0.3,0.2c0.1,0.6,0,1.1-0.5,1.39c0,0-0.1,0.1-0.3,0.1c0.3,0.8,0.3,1.2,0,1.59c-0.1,0.1-0.3,0.1-0.5,0.1
	c0.1,0.5,0.3,1,0.6,1.69c0.5,0.4,0.9,0.7,1.11,0.7C19.4,12.6,19.8,12.6,20.1,12.7z M16.18,25.95c0.1,0,0.3,0,0.5,0c0,0,0,0,0.1,0
	c0.4-0.5,0.9-0.9,1.41-0.9c0.1,0,0.3,0,0.5,0.1c0.4-0.6,0.9-1,1.41-1c0.3,0,0.5,0,0.6,0.1c0.4-0.5,1.01-0.8,1.51-0.8
	c0.1,0,0.3,0,0.4,0.1c0.3-0.6,0.6-1.79,0.3-2.69c-0.1,0-0.3-0.1-0.4-0.1l-0.2,0.1c-0.3,0.2-0.4,0.2-0.5,0.2h-0.1
	c-0.8-0.3-1.31-0.7-1.31-1.1c-3.92,0.6-4.92,3.89-4.92,3.99c0,0.2-0.3,0.3-0.5,0.3h-0.1c-0.3,0-0.4-0.3-0.4-0.6
	c0-0.1,0.8-2.39,3.12-3.79h-0.1h-0.1l-0.1-0.1c-0.1-0.1-0.3-0.2-0.4-0.3c-0.4,0-0.9,0.2-1.31,0.3c-0.2,0-0.4,0.1-0.6,0.2
	c-1.41,0.3-2.01,0.6-2.41,0.7c0,0.5-0.1,1.2-0.7,1.69c0.3,0.5,0.3,1.1,0,1.69c0.2,0.2,0.4,0.4,0.4,0.7c0.1,0.5,0.1,1-0.1,1.49
	c0.5,0.6,0.6,1.1,0.8,1.59c0.9-0.4,1.81-0.8,2.11-1.1C15.38,26.35,15.78,26.05,16.18,25.95z M34.07,17.58c-0.5-0.1-0.5-0.2-0.8-0.4
	c-0.2-0.1-0.2-0.3-0.3-0.4c-1.41,0.1-2.81,0.3-4.82,1.2c-0.3,0.1-0.5,0.3-0.8,0.5c0,0.1-0.1,0.2-0.1,0.3c0.2,0.2,0.3,0.4,0.3,0.7
	c0,0.2,0,0.4-0.2,0.5c0,0,0,0-0.1,0c4.52,1,6.53,3.19,6.63,3.19c0.2,0.2,0.2,0.5,0,0.7c-0.1,0.1-0.2,0.1-0.3,0.1
	c-0.2,0-0.3,0-0.4-0.1c0,0-2.61-2.79-8.54-3.29c-0.1,0-0.4,0-0.5,0c-0.2-0.1-0.5-0.1-0.5-0.1c0,0.1,0,0.3-0.1,0.4
	c0.3,0.8,0.2,1.79,0,2.49c0,1.99,1.41,3.89,1.91,4.58c0.1,0.1,0.1,0.2,0.2,0.3c0.1,0.3,0.8,0.7,1.41,1.1c0.1,0,0.3,0,0.3,0
	c0.3-0.2,0.7-0.3,1.01-0.4c0.5,0,1.01,0.2,1.31,0.6c0.1,0.1,0.2,0.1,0.3,0c0.2-0.1,0.4-0.2,0.8-0.2c0.5,0,0.8,0.2,1.01,0.5
	c0.1,0.1,0.3,0.1,0.4,0c0.2-0.1,0.5-0.2,0.7-0.2c0.5,0,1.01,0.2,1.51,0.5c0.1,0,0.2,0,0.3,0c0.2-0.1,0.5-0.3,0.8-0.3
	c0.5,0,0.9,0.1,1.31,0.3c0.2-0.1,0.5-0.2,1.01-0.1c0.3,0.1,1.21-0.1,2.01-0.3c0.1,0,0.2-0.1,0.2-0.2c0-0.8-0.1-1.69-0.4-2.09
	c-0.7-0.9-0.7-1.39-0.6-1.69c0-0.2,0.1-0.3,0.2-0.5c-0.5-0.8-0.5-1.39-0.3-1.89c0-0.1,0-0.2,0-0.3c-0.3-0.3-0.8-0.8-0.8-1.3
	c0-0.1,0-0.3,0-0.4c-0.6-0.3-1.11-0.8-1.31-1.3c-0.1-0.2-0.2-0.5-0.1-0.7c0-0.1,0-0.2-0.2-0.3c-1.01-0.4-1.41-1.1-1.51-1.49
	c-0.3,0-0.5-0.1-0.7-0.1L34.07,17.58z M25.33,16.78c-0.4-0.2-0.6-0.6-0.7-1c-0.4,0-0.6-0.2-0.8-0.5c-0.7,0.3-0.7,1.1-0.6,1.79
	c0,0.3,0,0.5,0,0.7c-0.1,0.2-0.3,0.3-0.6,0.5c-0.3,0.2-1.31,1-1.31,1.3c0,0,0.1,0.1,0.3,0.2c0,0,0.1,0,0.1-0.1
	c0.1,0,0.2-0.1,0.4-0.1c0.2,0,0.4,0.1,0.5,0.1s0.2,0.1,0.3,0.1c0-0.2,0.2-0.3,0.3-0.4c0.3-0.2,0.6-0.2,1.01-0.1
	c0-0.1,0.1-0.1,0.2-0.2c0.4-0.2,0.8-0.1,1.11,0c0,0,0-0.1,0.1-0.1c0.1-0.1,0.4-0.1,0.5-0.1c-0.2-0.3-0.5-0.8-0.5-1.1
	C25.53,17.58,25.23,17.28,25.33,16.78z M16.58,9.81c-0.3,0.4,0,1.3,0.4,2.19c0,0.1,0,0.2-0.2,0.2c-0.3,0-0.7-0.1-1.01-0.3
	c-0.1,0-0.3,0-0.4,0l-0.6,0.4c-0.2,0-0.5,0-0.7,0h-0.1c-0.8-0.2-2.31,0.2-2.61,0.3l-0.4,0.1l0.1,0.4c0,0,0.1,0.5,0.3,1
	c-1.11,0-3.02-0.3-4.92-1.79c-0.1-0.2-0.5-0.2-0.6,0.1c-0.2,0.2-0.2,0.5,0.1,0.7c2.31,1.69,4.62,1.99,5.73,1.99c0.3,0,0.5,0,0.6,0
	l0.1,0.1c0,0.1-0.1,0.2,0,0.4c0,0.2,0.1,0.3,0.4,0.4c0.6,0.3,0.8,0.5,0.8,0.6c0,0,0,0,0,0.1c-0.1,0.1-0.1,0.3,0,0.5
	c0,0.1,0.2,0.3,0.4,0.3c0.6,0.2,1.01,0.5,1.01,0.7c0,0.1,0,0.1,0,0.2c-0.1,0.2,0,0.4,0.1,0.6l0.1,0.1c-0.1,0-0.2,0-0.3,0.1
	c-1.91,0.5-2.61,0.8-2.91,1c-0.1,0-0.2,0.1-0.2,0.2c-0.1,0.1-0.1,0.3,0,0.4c0,0.1,0,0.3,0,0.5c-0.1,0-0.3,0-0.4,0
	c-0.9,0-2.21-0.1-2.81-0.9l-0.3-0.4l0.4-0.3c0.1-0.1,0.1-0.1,0.1-0.1c-0.1-0.1-0.7-0.5-1.91-0.6c-0.2,0-0.4-0.1-0.4-0.3
	c-0.1-0.2-0.1-0.4,0.1-0.6c0.1-0.2,0.1-0.3,0.1-0.3c-0.1-0.1-0.4-0.3-1.91-0.5c-0.2,0-0.4-0.1-0.4-0.3c-0.1-0.2-0.1-0.4,0.1-0.5
	c0.1-0.1,0.1-0.2,0.1-0.3c0-0.2-0.2-0.5-1.71-0.8c-0.2,0-0.3-0.2-0.4-0.4c-0.1-0.2,0-0.4,0.2-0.5c0.2-0.1,0.2-0.2,0.2-0.2
	c-0.1-0.1-0.3-0.4-1.81-1c-0.2-0.1-0.3-0.2-0.3-0.4c0-0.3,0.3-0.5,0.4-0.6c0.1,0,0.2-0.1,0.3-0.2c-0.1-0.1-0.3-0.4-0.4-0.6
	C0.6,11,0,10.31,0,9.61v-0.3l0.3-0.1c0.4-0.2,1.01-0.3,1.61-0.3c0.9-0.1,1.41-0.2,1.41-0.5c0,0,0.1-0.4,0.2-0.5c0.1,0,0.5,0,0.5,0
	c1.11,0.3,1.91,0.2,2.21,0c0.1-0.1,0.1-0.1,0.1-0.2l0.3-0.4c0.1-0.1,0.4,0,0.5,0c0.6,0.4,1.41,0.5,1.91,0.3
	c-0.1-0.1,0.1-0.2,0.1-0.5c0,0,0.3-0.3,0.4-0.4c0.1-0.1,0.4,0,0.5,0.1c0.9,0.7,1.51,0.9,1.91,0.8c0.1,0,0.2,0,0.3-0.2
	c0,0,0.2-0.3,0.4-0.3c0.1-0.1,0.5,0.1,0.6,0.3c0.5,0.7,1.01,1,1.21,1c0,0,0.2,0,0.4-0.2c0,0,0.1-0.3,0.3-0.3c0.2,0,0.4,0.1,0.4,0.1
	c0.4,0.1,1.01,0.6,1.61,1.1c0,0.2,0.1,0.4,0.1,0.6C16.98,9.61,16.68,9.61,16.58,9.81z M39.7,7.92c0-0.1-0.2-0.3-0.3-0.4
	c-0.4-0.2-0.4-1.1,0-2.09c0.1-0.1,0.1-0.3,0-0.5c-0.1-0.1-0.3-0.3-0.4-0.3c-0.5-0.1-0.6-0.2-0.7-0.3c-0.1-0.1-0.2-0.5,0.2-1.39
	c0.1-0.3,0-0.6-0.3-0.7c-0.4-0.1-0.5-0.7-0.5-1.3c0-0.4,0-0.7-0.4-0.9c-0.1,0-0.3-0.1-0.5,0c-0.6,0.2-1.41,0.4-1.81,0.1
	c-0.2-0.1-0.5-0.1-0.7,0c-0.8,0.4-1.51,0.4-2.11,0c-0.3-0.1-0.7,0-0.9,0.1c-0.8,0.8-1.71,1.1-2.31,0.8c-0.3-0.2-0.6-0.2-0.8,0
	c-0.4,0.3-1.01,1-1.51,1.49c0,0,0,0,0.1,0c0.1,0,0.4,0,0.5,0.1c0.1,0.1,0.2,0.3,0.1,0.4c0,0.7,0.2,1,0.9,1.1c0.2,0,0.3,0.1,0.3,0.3
	c0,0.1,0.1,0.3,0,0.4c-0.2,0.5-0.3,0.9-0.2,1.1c0,0.1,0.1,0.2,0.3,0.3c0.2,0,0.3,0.2,0.3,0.3c0,0.1,0,0.3,0,0.4
	c-0.3,0.5-0.3,1-0.2,1.1c0,0.1,0.2,0.1,0.3,0.2c0.2,0,0.3,0.1,0.5,0.3c0.1,0.1,0.1,0.3,0,0.5c-0.5,0.8-0.4,1.1-0.3,1.1
	c0,0,0,0,0.2,0c0.2,0,0.3,0,0.5,0.2c0.1,0.1,0.2,0.3,0.1,0.5c-0.3,1-1.11,2.89-2.31,3.99c-0.3,0.3-0.7,0.6-1.31,1c0,0,0,0,0.1,0.1
	c0,0.1,0,0.3,0,0.4c-0.1,0.2-0.1,0.2,0.4,0.5l0.2,0.1c0.3-0.2,0.5-0.3,0.8-0.4c2.31-1.1,3.92-1.2,5.63-1.3c0.2,0,0.3,0,0.5,0.2
	c0.1,0.1,0.2,0.3,0.2,0.5c0,0,0,0,0,0.1c0.1,0.1,0.3,0.2,0.5,0.2c0.3,0,0.5,0.1,0.9,0.1c0.2,0,0.3,0,0.5,0.2c0,0,0,0.1,0.1,0.1
	c0.5-0.4,1.01-1,1.31-1.2c0.1-0.1,0.2-0.3,0.1-0.4c0-0.1-0.1-0.3-0.3-0.4c-0.2-0.1-0.2-0.2-0.2-0.2c0-0.3,0.5-0.9,1.31-1.3
	c0.2-0.1,0.3-0.2,0.3-0.4s0-0.4-0.2-0.5c-0.3-0.2-0.3-0.4-0.3-0.6c0-0.3,0.5-0.7,1.21-1.2c0.2-0.1,0.3-0.3,0.3-0.5
	c0-0.2-0.1-0.4-0.3-0.5c-0.5,0.5-0.6,0.4-0.6,0.3c0-0.3,0.2-0.8,0.6-1.3C39.7,8.31,39.7,8.12,39.7,7.92z M25.43,29.34
	c-0.2,1.39-0.9,2.89-1.71,3.89c-0.1,0.1-0.4,0.2-0.5,0.2c-0.2,0-0.4-0.1-0.4-0.3c-0.3,0.2-0.9,0.9-1.51,2.19
	c-0.1,0.2-0.3,0.3-0.5,0.3c-0.2,0-0.4-0.1-0.5-0.3c-0.2-0.1-0.2-0.1-0.3-0.1c-0.4,0-1.21,0.6-1.81,1.69c-0.2,0.1-0.4,0.2-0.7,0.1
	c-0.3,0-0.4-0.2-0.5-0.4v-0.1c-0.3,0-1.21,0.8-1.81,1.2c-0.4,0.3-0.8,0.6-1.11,0.9c-0.1,0.1-0.4,0.1-0.5,0c-0.2,0-0.3-0.2-0.4-0.4
	c0-0.2-0.1-0.3-0.1-0.3c-0.2,0-0.9,0.4-1.31,0.7c-0.3,0.2-0.5,0.4-0.8,0.5c-0.1,0.1-0.3,0.1-0.5,0c-0.1,0-0.3-0.2-0.4-0.3
	c-0.1-0.1-0.1-0.1-0.1-0.2c-0.2,0.1-0.8,0.4-1.21,0.6c-0.4,0.2-1.01,0.5-1.61,0.7c-0.1,0-0.4,0-0.5,0c-0.1-0.1-0.3-0.2-0.3-0.4
	c-0.3,0-1.11,0.1-1.51,0.2c-0.4,0.2-0.9,0.3-1.41,0.3c-0.1,0-0.2,0-0.3,0h-0.4v-0.4c0-0.3,0.1-0.6,0.2-1c0.2-0.7,0.4-1.39,0-1.89
	c-0.2-0.2-0.2-0.5,0-0.6c0.3-0.3,1.01-1.39,0.4-2.19c-0.2-0.2-0.2-0.6,0.1-0.8c0.5-0.4,1.31-1.39,0.8-2.49c-0.1-0.2-0.1-0.6,0.2-0.7
	c1.11-0.6,1.31-1.1,1.11-2.39c-0.3-0.2-0.1-0.5,0.2-0.6c1.41-0.4,1.61-0.9,1.71-1.1c0.1-0.2-0.1-0.4-0.1-0.4
	c-0.1-0.1-0.2-0.3-0.1-0.5c0.1-0.2,0.1-0.8,3.92-2.19c0.1,0.2,0.1,0.6-0.1,1.1c0,0,0,0-0.1,0.1c-0.2,0.1-0.3,0.2-0.2,0.3
	c0.1,0.1,0.1,0.3,0.4,0.3c0.1,0,0.1,0,0.2,0.3c0.1,0.3,0,0.7-0.1,0.9c-0.1,0.2-0.1,0.5,0,0.7c0.7,0.9,0.8,1.59,0.9,1.79
	c0,0.2,0.1,0.3,0.3,0.4c0.1,0,0.2,0.1,0.3,0.1s0.1,0,0.3,0c0.3-0.1,0.9-0.4,1.51-0.7c-1.61,1.79-3.42,3.29-3.42,3.29
	c-0.2,0.2-0.2,0.5,0,0.7c0.1,0.1,0.3,0.1,0.4,0.1c0.1,0,0.3,0,0.4-0.1c0.1-0.1,3.22-2.89,5.03-5.18c0.1,0.1,0.3,0.2,0.5,0.2h0.4
	l0.1-0.3c0.3-0.5,0.6-0.8,0.8-0.8c0,0,0,0,0.1,0.1c0.1,0.2,0.3,0.3,0.5,0.3c0.3,0,0.4-0.1,0.5-0.3c0.3-0.6,0.6-1,0.9-1
	c0,0,0.1,0,0.1,0.1c0.1,0.2,0.3,0.3,0.5,0.3c0.2,0,0.4-0.1,0.5-0.3c0.2-0.5,0.6-0.7,0.8-0.7c0,0.2,0.2,0.3,0.4,0.3h0.3
	c0.3,1.39,1.81,3.59,1.91,3.69c0,0.1,0.1,0.2,0.1,0.2C25.03,28.94,25.13,29.14,25.43,29.34z"/>
</svg>
