<?xml version="1.0" encoding="utf-8"?>
<!-- Generator: Adobe Illustrator 22.0.1, SVG Export Plug-In . SVG Version: 6.00 Build 0)  -->
<svg version="1.2" baseProfile="tiny" id="Слой_1"
	 xmlns="http://www.w3.org/2000/svg" xmlns:xlink="http://www.w3.org/1999/xlink" x="0px" y="0px" viewBox="0 0 24 40"
	 xml:space="preserve">
<path fill="#FFFFFF" d="M13.2,10.4c0.4,0,1.1,0,1.7,0.1c1.3-3.9,1.9-7.2,1.7-9.8L15,0.9C15.2,3.9,14.3,7.6,13.2,10.4z M12.4,11.1
	c-0.4,0-0.7,0-0.7,0s-0.2,0-0.6,0c-1.5,0-5.6,0.3-8.3,2.8C1,15.6,0,18.1,0,21.2c0,5,3.3,7.7,6.5,10.3c2.6,2.1,5,4.1,5.2,7.1
	c0.1,0.9,0.2,1.3,0.3,1.4c0.1-0.1,0.2-0.4,0.2-1.5c0.1-3,2.6-5,5.2-7.1c3.2-2.6,6.6-5.2,6.6-10.1c0-3.2-0.9-5.6-2.8-7.4
	C17.9,10.7,12.5,11.1,12.4,11.1z M11.8,10.4c0,0,0.3,0,0.7,0c0,0,0.3,0,0.7,0c0.4-3.1,0.8-7,0.5-10.4L12,0.1c0.1,1.5,0.1,3.2,0,4.9
	c-0.1-1.7-0.2-3.4-0.3-5L10,0.1c0.2,3.2,0.4,7,0.6,10c-1-2.5-2.2-5.3-2.7-7.9L6.2,2.7c0.6,2.6,1.7,5.4,2.8,8
	C10.6,10.4,11.7,10.4,11.8,10.4z"/>
</svg>
