<?xml version="1.0" encoding="utf-8"?>
<!-- Generator: Adobe Illustrator 22.0.1, SVG Export Plug-In . SVG Version: 6.00 Build 0)  -->
<svg version="1.2" baseProfile="tiny" id="Слой_1"
	 xmlns="http://www.w3.org/2000/svg" xmlns:xlink="http://www.w3.org/1999/xlink" x="0px" y="0px" viewBox="0 0 40 40"
	 xml:space="preserve">
<path fill="#FFFFFF" d="M15.62,35c1.46,2.77,3.48,4.6,3.6,4.71c0.22,0.2,0.5,0.3,0.78,0.3s0.56-0.1,0.78-0.3
	c0.12-0.1,2.13-1.94,3.6-4.71c-1.72-0.68-3.21-1.62-4.38-2.51C18.83,33.37,17.34,34.31,15.62,35z M37.27,24.85
	c-0.22,0.25-0.44,0.49-0.67,0.72c-2.3,2.3-5.36,3.95-9.08,4.89c-1.98,0.5-3.81,0.72-5.19,0.8c1.83,1.22,4.32,2.4,7.09,2.4
	c5.66,0,10.1-4.89,10.29-5.1c0.4-0.44,0.4-1.12,0-1.56C39.64,26.93,38.74,25.94,37.27,24.85z M12.49,30.46
	c-3.72-0.94-6.78-2.59-9.08-4.89c-0.23-0.23-0.45-0.47-0.67-0.72C1.26,25.94,0.36,26.93,0.3,27c-0.4,0.44-0.4,1.12,0,1.56
	c0.19,0.21,4.63,5.1,10.29,5.1c2.78,0,5.26-1.18,7.09-2.4C16.3,31.17,14.47,30.96,12.49,30.46z M19.22,28.65
	c0.22,0.2,0.5,0.3,0.78,0.3s0.56-0.1,0.78-0.3c0.29-0.26,7.04-6.4,7.04-14.18c0-7.78-6.75-13.92-7.04-14.18C20.56,0.1,20.28,0,20,0
	s-0.56,0.1-0.78,0.3c-0.29,0.26-7.04,6.4-7.04,14.18S18.93,28.4,19.22,28.65z M32.46,6.03c-0.57-1.97-1.18-3.26-1.22-3.34
	c-0.26-0.54-0.88-0.8-1.44-0.6c-0.08,0.03-1.43,0.51-3.22,1.5c0.78,1.18,1.43,2.38,1.96,3.58C29.88,6.65,31.21,6.28,32.46,6.03z
	 M13.42,3.59c-1.79-0.99-3.13-1.47-3.22-1.5c-0.56-0.2-1.19,0.06-1.44,0.6C8.72,2.77,8.11,4.06,7.54,6.03
	c1.25,0.26,2.58,0.63,3.92,1.15C11.99,5.97,12.65,4.77,13.42,3.59z M30.17,14.48c0,2.06-0.41,4.18-1.21,6.3
	c-0.63,1.66-1.51,3.31-2.6,4.93c-0.84,1.23-1.68,2.26-2.38,3.04c3.23-0.42,7.73-1.6,10.97-4.84c5.5-5.5,5.07-14.62,5.04-15.01
	c-0.03-0.6-0.51-1.07-1.11-1.11c-0.05,0-0.31-0.02-0.73-0.02c-1.52,0-5.15,0.17-8.78,1.59C29.9,11.08,30.17,12.8,30.17,14.48z
	 M16.03,28.75c-0.7-0.78-1.55-1.81-2.38-3.04c-1.1-1.62-1.97-3.27-2.6-4.93c-0.81-2.11-1.21-4.23-1.21-6.3
	c0-1.68,0.27-3.39,0.8-5.11C7,7.95,3.37,7.78,1.85,7.78c-0.42,0-0.68,0.01-0.73,0.02C0.53,7.83,0.05,8.3,0.02,8.9
	c-0.02,0.39-0.46,9.5,5.04,15.01C8.31,27.15,12.81,28.33,16.03,28.75z"/>
</svg>
