<?xml version="1.0" encoding="utf-8"?>
<!-- Generator: Adobe Illustrator 22.0.1, SVG Export Plug-In . SVG Version: 6.00 Build 0)  -->
<svg version="1.2" baseProfile="tiny" id="Слой_1"
	 xmlns="http://www.w3.org/2000/svg" xmlns:xlink="http://www.w3.org/1999/xlink" x="0px" y="0px" viewBox="0 0 24 40"
	 xml:space="preserve">
<path fill="#FFFFFF" d="M18.51,11.78c0,0,0.4,3.5,2.39,3.4c2-0.1,2.39-1.6,2.39-1.6s-2.69,2-3.59,0.1c-0.8-1.9,0-10.01-4.19-10.01
	l0.6,1.4C16.22,5.07,17.72,5.77,18.51,11.78z M9.54,4.67c0,0,3.19,1.5,5.39-0.5c0,0-0.3-1.5-0.6-1.7c-0.3-0.2-0.8-3.2-2.69-2.3
	c-1.9,0.9-1.6,1.9-1,2c0.6,0,1.5,1.1,1.3,1.6c-0.3-0.6-1.1-0.9-1.7-0.6c0,0-1.2-1.1-0.4-2.1c0,0-1.9,0.5-1.4,2S9.54,4.67,9.54,4.67z
	 M9.54,35.2c-1.3-0.5-3.29,1.5-2,2.7c1.3,1.2,2.19,1.4,2.19,1.4s-2.59-2-1.7-2.8c1.3-1.3,2.69,0.4,4.99-1l-0.6-1
	C12.33,34.5,10.83,35.7,9.54,35.2z M22.4,36.7c-1.7-0.7-1.3-1.7-1.3-1.7l-0.7,0.6c0,0,0,0.8,0.4,1s3.09,0.9,3.19,1.8
	C23.9,38.31,24.1,37.4,22.4,36.7z M13.53,31.3c0,0-0.6-3.3,0.8-5.11c1.4-1.8,1.9-4.9,1.9-4.9s-0.1-1.5-0.9-2.3c1,0.8,1.7,2,1.7,3.3
	c0,0.6,0.1,1.2,0.2,1.8c0,0-1.1,2.4-1,4.3c-0.6,0.7-1.3,1.3-2.09,1.8v0.7c0.7-0.6,1.4-1.2,2.19-1.7c0.1,0.3,0.2,0.6,0.4,0.9
	c1.3,1.7-1.8,2.9-1.8,2.9l0.4,0.8c0,0,3.79-2.1,2.19-4.2c-0.4-0.6-0.5-1.4-0.3-2.1c0.1-0.5,0.2-1,0.4-1.5c0.3,0.8,0.9,1.5,1.7,1.9
	c0.2,0.1,0.4,0.2,0.6,0.3c-0.7,0.7-0.9,1.8-0.5,2.7c0.7,1.7,0.3,2.3,0.3,2.3l0.8-0.6c0,0,0.3-0.6-0.1-1.8c-0.2-0.6-0.1-1.3,0.3-1.8
	l0.1-0.2c1,0.8,1.5,2,1,3.2c-0.7,1.7-3.09,2.2-3.59,4.4l0.8,0.5c0.7-1.3,1.8-2.3,2.99-3.1c1.9-1.1,1.3-4,0.7-5
	c-0.6-1-2.59-2-3.09-3.1c-0.5-1.1-0.1-5.41-1.6-7.31c0,0,0.1-10.11-2.49-13.01c0,0-3.09,1.8-6.28,0.4c-1.6,0.3-2.69,1.8-2.79,3.5
	c-0.1,1.8,0.6,3.6,2,4.9l-0.5-1.8c0,0-1.2-3.3,0.8-5.21c-0.2,0.6-0.3,1.4-0.3,2.1c0,1.4,0.1,2.8,0.4,4.1c0.6,0,1.2,0,1.8,0
	s1.2,0,1.8,0c0,0-1.1,0.5-1.8,0.7c-0.5,0.2-1.1,0.2-1.6,0.2c0.1,0.6,0.2,1.3,0.3,1.9c0.6,0.1,1.2,0.1,1.9-0.1
	c1.2-0.3,2.49-0.4,3.69-0.4c0,0-2.99,0.4-3.59,1c-0.4,0.3-1.1,0.3-1.8,0.2c0.1,0.9,0.2,1.9,0.1,2.8c-0.4,2.9-4.69,6.41-7.28,6.21
	c-2.59-0.2-2.59,2.3-2.09,2.4c0.5,0.1,0.6-1.1,0.9-1.1c0.3,0,0.6-0.4,2.89-0.5c1.1-0.1,2.29-0.4,3.29-0.8c0.1,0.5,0.3,0.9,0.5,1.4
	c0,0-0.8,1.6-2.19,2c-1.4,0.3-1.1,2.3-0.8,3.5c0.3,1.2-1.2,2.2-0.7,3.5c0.3-0.8,0.6-1.5,1.1-2.1c0.9-1.2-0.3-2.7,0.1-3.4
	s1.8-0.7,2.99-2.5c0.6,0.9,0.6,2.7,0,3.8c-0.6,1,1.2,2.4,1.2,2.4s0.6,0.1,0.5,0s-1.9-1.9-0.8-2.9c0.5-0.5,0.3-2.1,0-3.6
	c0.4,0.2,0.8,0.2,1.2,0.2v-0.8c-0.4,0.4-1-0.1-1.5-0.5c-0.2-0.6-0.3-1.1-0.4-1.5c1.6-0.9,2.99-2.1,3.39-3.7c0,0-0.8,4.7-0.9,5.11
	c-0.2,0.4-0.2,3.4,0.5,4.9c0.7,1.5,2.79,5.41,5.39,6.21c2.59,0.8,4.49,2.7,4.99,1.9c0,0-2.29-2.2-4.39-2.8S13.53,31.3,13.53,31.3z"
	/>
</svg>
