<svg width="55" height="40" viewBox="0 0 55 40" fill="none" xmlns="http://www.w3.org/2000/svg">
<path d="M51.0714 19.2415C51.1516 19.002 51.2318 18.7625 51.312 18.523L54.1982 16.8463C54.6793 16.5269 55 16.0479 55 15.4092L54.9198 12.2954C54.9198 11.497 54.2784 10.7784 53.4767 10.6986L52.2741 10.5389C52.1137 7.66467 51.312 4.79042 49.8688 2.15569L49.2274 0.878244C48.8265 0.0798407 47.8644 -0.239521 47.0627 0.159681C46.9825 0.239521 46.9023 0.239521 46.8222 0.319362L43.0539 3.19361C42.4125 3.67266 42.2522 4.5509 42.6531 5.26946L43.2143 6.22755C46.3411 11.6567 43.4548 18.523 36.4796 22.5948C36.3994 22.3553 36.3192 22.1956 36.1589 21.9561C34.8761 19.6407 32.4708 18.1238 29.8251 17.9641C28.3018 17.8842 26.7784 17.8842 25.2551 17.9641C22.6093 18.1238 20.2041 19.6407 18.9213 21.9561C18.8411 22.1956 18.6808 22.3553 18.6006 22.5948C11.6254 18.4431 8.81924 11.5768 11.8659 6.22755L12.3469 5.3493C12.7478 4.63074 12.5875 3.7525 11.9461 3.27345L8.09767 0.399202C7.45627 -0.15968 6.41399 -0.0798399 5.93294 0.638723C5.85277 0.718563 5.77259 0.798404 5.77259 0.878244L5.1312 2.15569C3.68805 4.79042 2.8863 7.66467 2.72595 10.6188H2.5656L1.52332 10.7784C0.721574 10.8583 0.16035 11.497 0.0801749 12.2954L0 15.4092C0 15.9681 0.3207 16.5269 0.801749 16.7665L3.68805 18.4431C3.76822 18.6826 3.8484 18.9222 4.00875 19.1617L2.40525 19.481C1.52332 19.6407 0.962099 20.519 1.12245 21.3972C1.12245 21.3972 1.12245 21.3972 1.12245 21.477L1.9242 24.9102C2.08455 25.6287 2.64577 26.1078 3.36735 26.1078L8.09767 26.4271C8.17784 26.507 8.25802 26.5868 8.33819 26.6667L7.05539 27.2255C6.25364 27.5449 5.85277 28.503 6.25364 29.3014C6.33382 29.3812 6.33382 29.4611 6.41399 29.6208L8.81924 32.7345C9.13994 33.2136 9.70117 33.4531 10.2624 33.3733L17.2376 32.5749C17.879 32.8144 18.4402 32.9741 19.0816 33.1337C19.1618 33.4531 19.242 33.8523 19.3222 34.1717C20.2041 37.525 23.1706 39.8403 26.6181 39.9202H28.3018C31.7493 39.8403 34.7157 37.4451 35.5977 34.0918L35.8382 33.0539C36.4796 32.8942 37.0408 32.7345 37.6822 32.495L44.6574 33.2934C45.2187 33.3733 45.7799 33.1337 46.1006 32.7345L48.4257 29.7006C48.9067 28.982 48.7464 28.024 48.105 27.4651C48.0248 27.3852 47.9446 27.3054 47.7843 27.3054L46.5015 26.7465C46.5816 26.6667 46.6618 26.5868 46.742 26.507L51.4723 26.1876C52.1939 26.1078 52.7551 25.6287 52.9155 24.99L53.7172 21.5569C53.9577 20.6786 53.3965 19.8004 52.5146 19.6407C52.5146 19.6407 52.5146 19.6407 52.4344 19.6407L51.0714 19.2415ZM25.4155 21.1577C26.7784 21.0778 28.2216 21.0778 29.5846 21.1577C31.0277 21.2375 32.3907 22.0359 33.1924 23.3134C33.3528 23.5529 33.4329 23.7924 33.5131 24.0319C32.07 24.5908 30.4665 24.9102 28.9431 24.9102L27.5 24.99L26.0569 24.9102C24.5335 24.9102 22.93 24.5908 21.4869 24.0319C21.5671 23.7924 21.7274 23.5529 21.8076 23.3932C22.6093 22.0359 23.9723 21.2375 25.4155 21.1577ZM17.6385 29.3014L10.8236 30.0998L10.3426 29.4611L14.5918 27.7046L13.9504 27.3054C12.4271 26.3473 11.0641 25.0699 9.94169 23.6327L9.86152 23.4731H9.62099L4.89067 23.1537L4.73032 22.4351L8.57872 21.6367L8.33819 21.1577C7.61662 19.8004 7.05539 18.3633 6.57434 16.9262C6.49417 16.6068 6.17347 16.2874 5.85277 16.1277L3.28717 14.6108V13.8124L5.85277 13.493V12.5349C5.77259 9.66068 6.41399 6.70659 7.77697 4.07186L8.89942 4.9501C5.1312 11.976 8.57872 20.519 17.2376 25.5489C19.723 26.986 22.449 27.8643 25.3353 28.024L23.7318 30.5788C21.7274 30.499 19.723 30.0998 17.7988 29.3812L17.6385 29.3014ZM32.4708 33.6926C31.9096 35.5289 30.226 36.7265 28.3819 36.8064C27.8207 36.8064 27.3397 36.8064 26.8586 36.8064C24.9344 36.7265 23.2507 35.4491 22.6895 33.6926C23.0904 33.6926 25.4956 33.8523 25.4956 33.8523L27.5802 30.499L29.6647 33.7725C29.6647 33.8523 32.07 33.7725 32.4708 33.6926ZM50.3499 22.4351L50.1895 23.1537L45.379 23.4731H45.2187L45.1385 23.6327C44.016 25.0699 42.6531 26.3473 41.1297 27.3054L40.5685 27.7046L44.8178 29.4611L44.3367 30.0998L37.5219 29.3014H37.4417C35.5175 30.02 33.5131 30.4192 31.5087 30.499L29.9052 27.9441C32.7915 27.7046 35.5175 26.8263 38.0029 25.3892C46.6618 20.4391 50.1093 11.8164 46.3411 4.79042L47.4636 3.99202C48.7464 6.62675 49.3878 9.58084 49.3076 12.5349V13.4132L51.8732 13.7325V14.5309L49.3076 15.9681C48.9869 16.1277 48.7464 16.4471 48.586 16.8463C48.105 18.2834 47.5437 19.7206 46.8222 21.0778L46.5816 21.5569L50.3499 22.4351Z" fill="white"/>
</svg>
